Coordinates
datacolumns 6
datarows 136
range 18.88 20.23
inDegrees=yes
Units are S.I. units (second, meters, Newtons, ...)
If the header above contains a line with 'inDegrees', this indicates whether rotational values are in degrees (yes) or radians (no).
endheader
time	foot_tx	hip_flexion_r	knee_angle_r	ankle_angle_r	lumbar
18.88	0.17227664	53.53784507	-70.6485989	3.09344956	-24.71869039
18.89	0.17226741	53.57326744	-70.64290475	3.09209598	-24.81611822
18.9	0.17225996	53.61076153	-70.63691192	3.09080453	-24.91981522
18.91	0.17226683	53.67697701	-70.62947725	3.08581461	-25.00153553
18.92	0.17224258	53.69109973	-70.62400562	3.08937596	-25.14874306
18.93	0.17222924	53.73362119	-70.61655879	3.08924385	-25.27512916
18.94	0.17221403	53.78055436	-70.60892353	3.0895333	-25.40641316
18.95	0.17219336	53.83224095	-70.60054172	3.09013427	-25.5428555
18.96	0.17217277	53.89073104	-70.59149044	3.09058534	-25.68166224
18.97	0.17215999	53.98699918	-70.58065074	3.08700166	-25.79055537
18.98	0.17212115	54.03122452	-70.5693177	3.09067361	-25.96616452
18.99	0.17210246	54.14114037	-70.55665941	3.08764932	-26.08055776
19	0.17206709	54.203213	-70.54050337	3.08961873	-26.25801168
19.01	0.17204274	54.32407165	-70.52566085	3.0880801	-26.38094232
19.02	0.17200436	54.4030433	-70.50735824	3.09090356	-26.561972
19.03	0.17197593	54.53710286	-70.49048928	3.09041691	-26.69483498
19.04	0.17193288	54.63976979	-70.47153693	3.09364807	-26.87751122
19.05	0.17189278	54.79155333	-70.45553639	3.0948256	-27.02178973
19.06	0.17184661	54.95129265	-70.43974444	3.09654353	-27.17533434
19.07	0.17179327	55.12056052	-70.42505678	3.09944604	-27.33611669
19.08	0.17173437	55.29984069	-70.41149499	3.10388738	-27.50298678
19.09	0.17167159	55.48901071	-70.3989021	3.11019004	-27.67547118
19.1	0.17160875	55.68785818	-70.38700993	3.11844833	-27.85380807
19.11	0.17154471	55.89565572	-70.37615143	3.12913351	-28.03829867
19.12	0.1714813	56.11252576	-70.36604482	3.14210349	-28.22925865
19.13	0.17141737	56.33881347	-70.3567936	3.15739033	-28.42690589
19.14	0.17135302	56.57483633	-70.34827642	3.17480921	-28.63137989
19.15	0.17128666	56.84017113	-70.34278225	3.19394609	-28.82125088
19.16	0.17122347	57.09105657	-70.33446018	3.21499889	-29.04547101
19.17	0.17116039	57.35333021	-70.32596441	3.23723743	-29.27576497
19.18	0.17110196	57.62716199	-70.31658063	3.26023216	-29.51115119
19.19	0.17104302	57.91419179	-70.30622201	3.28415486	-29.74992287
19.2	0.17097551	58.25134683	-70.30182036	3.31073662	-29.94891453
19.21	0.17092397	58.54738977	-70.28887347	3.33888172	-30.20856546
19.22	0.17087299	58.85695015	-70.27308024	3.36774042	-30.47081341
19.23	0.17082123	59.21238721	-70.2604076	3.39818248	-30.69644627
19.24	0.17078283	59.53252211	-70.23976838	3.43064313	-30.97665373
19.25	0.17074168	59.89619552	-70.21947707	3.46321589	-31.22533025
19.26	0.17070702	60.23592044	-70.19244846	3.49787081	-31.5167933
19.27	0.17066831	60.63392536	-70.16725221	3.53267195	-31.75963876
19.28	0.17063565	61.02220933	-70.1359877	3.56900454	-32.02819163
19.29	0.17059372	61.43290263	-70.10442338	3.60799488	-32.28857804
19.3	0.17055489	61.87307128	-70.06961953	3.64599212	-32.53380607
19.31	0.17051158	62.34976916	-70.03296504	3.68354437	-32.75675992
19.32	0.17045749	62.85996608	-69.99560316	3.72272816	-32.95858717
19.33	0.17039999	63.39198683	-69.95460865	3.76374856	-33.14913012
19.34	0.17033536	63.93822034	-69.90996281	3.80873494	-33.33390524
19.35	0.17025814	64.48742801	-69.86341209	3.86088323	-33.52256865
19.36	0.17017522	65.03853403	-69.81303622	3.91916356	-33.71541946
19.37	0.17009217	65.5870549	-69.75828512	3.98327509	-33.91633635
19.38	0.17001117	66.13482869	-69.69898782	4.0529845	-34.12306889
19.39	0.1699382	66.68471477	-69.63493197	4.12747736	-34.33208306
19.4	0.16987834	67.24061916	-69.56643608	4.20652789	-34.53822454
19.41	0.16983676	67.80620087	-69.49423444	4.29035026	-34.73613359
19.42	0.16981557	68.38790357	-69.41928923	4.37948052	-34.91767339
19.43	0.16981874	68.98792577	-69.34229284	4.47434145	-35.07981054
19.44	0.16984436	69.61005703	-69.26441577	4.57543722	-35.21825599
19.45	0.16989426	70.25872902	-69.18490088	4.68245935	-35.32797645
19.46	0.16996995	70.93072689	-69.1017858	4.79482979	-35.41270417
19.47	0.17006862	71.62516313	-69.01244068	4.91190104	-35.47311675
19.48	0.17018206	72.3427033	-68.91482402	5.03352625	-35.50742667
19.49	0.17030445	73.07772731	-68.80585236	5.15966953	-35.51982807
19.5	0.17043581	73.82961253	-68.68087549	5.28828445	-35.50819954
19.51	0.17057401	74.59296836	-68.53886242	5.41998669	-35.4738341
19.52	0.17071865	75.36509978	-68.37691589	5.55382296	-35.4146078
19.53	0.17086662	76.13838647	-68.19557275	5.69094509	-35.33326994
19.54	0.17102153	76.90591158	-67.99381085	5.8311611	-35.2315511
19.55	0.17117334	77.66317389	-67.77601237	5.97727305	-35.10843594
19.56	0.17132155	78.4009576	-67.54370904	6.1302458	-34.96908679
19.57	0.17146282	79.11466119	-67.30069933	6.29173822	-34.8134765
19.58	0.17159836	79.79526961	-67.04982946	6.46271985	-34.64773756
19.59	0.17172846	80.43796912	-66.79382538	6.64375982	-34.47359584
19.6	0.17185016	81.03792917	-66.53538249	6.83556096	-34.29391092
19.61	0.1719653	81.59004324	-66.2766797	7.03823163	-34.11236473
19.62	0.17207122	82.08950868	-66.01985658	7.25179045	-33.9328319
19.63	0.17216857	82.53260015	-65.76632124	7.47541833	-33.75779419
19.64	0.17225369	82.91311433	-65.51803417	7.70897071	-33.5920542
19.65	0.17232758	83.22821479	-65.27609539	7.95135153	-33.43643938
19.66	0.17239593	83.47195825	-65.03918848	8.19988068	-33.29661669
19.67	0.17246209	83.64620692	-64.80753422	8.45297134	-33.16783387
19.68	0.17253488	83.75152273	-64.57913347	8.70761059	-33.04898448
19.69	0.17262144	83.79121727	-64.35149622	8.96101196	-32.93601562
19.7	0.17272147	83.76715725	-64.12267412	9.21175916	-32.82705507
19.71	0.17283516	83.67439933	-63.88968238	9.45900352	-32.72883615
19.72	0.17296167	83.54280849	-63.64845886	9.69881694	-32.60677018
19.73	0.17308916	83.33696245	-63.39770748	9.93487918	-32.5039536
19.74	0.17322925	83.08835941	-63.13167631	10.16155716	-32.38529421
19.75	0.17337175	82.79720485	-62.84827786	10.37896053	-32.25201701
19.76	0.17351437	82.46841415	-62.54480695	10.58582186	-32.10024851
19.77	0.17365621	82.1061804	-62.21721874	10.78027225	-31.92710784
19.78	0.17379449	81.71157605	-61.86307302	10.961306	-31.73361887
19.79	0.17392389	81.28546983	-61.48078427	11.12848395	-31.52138135
19.8	0.17405927	80.83311021	-61.06685938	11.27844317	-31.28727211
19.81	0.17419148	80.35267683	-60.62133651	11.41164291	-31.03690652
19.82	0.17433024	79.84389269	-60.1426985	11.52606331	-30.77487419
19.83	0.17448213	79.30248195	-59.63443608	11.62302927	-30.50804207
19.84	0.17465514	78.72712137	-59.09614368	11.70126324	-30.24275497
19.85	0.17485518	78.11928702	-58.5303405	11.7611702	-29.9795928
19.86	0.17508369	77.47633047	-57.94193933	11.80514937	-29.72351091
19.87	0.17534453	76.80282839	-57.33274311	11.83314996	-29.46967435
19.88	0.17563272	76.10015868	-56.7075486	11.84795822	-29.21693644
19.89	0.17593006	75.3653756	-56.07048875	11.85337032	-28.96884405
19.9	0.17623653	74.60977779	-55.42133802	11.84841729	-28.7115912
19.91	0.17654144	73.832766	-54.76577479	11.83727463	-28.44600697
19.92	0.17683172	73.04065432	-54.1045762	11.8212265	-28.16483362
19.93	0.17710035	72.23488009	-53.43933411	11.80183994	-27.86682134
19.94	0.17736154	71.42596772	-52.76961104	11.77701446	-27.54133484
19.95	0.17760594	70.60978554	-52.09623241	11.74870968	-27.19314521
19.96	0.17783915	69.78664549	-51.41846444	11.71628083	-26.8223567
19.97	0.17806261	68.95067382	-50.73559586	11.67994129	-26.43727124
19.98	0.17828718	68.10315623	-50.04719233	11.63871507	-26.03654285
19.99	0.17851238	67.23905528	-49.35413793	11.59371992	-25.62632806
20	0.17873208	66.35435068	-48.65792351	11.54668292	-25.21170046
20.01	0.17895654	65.45530677	-47.95657138	11.49513593	-24.78616879
20.02	0.17917695	64.53995832	-47.2508298	11.44017016	-24.35368752
20.03	0.17939585	63.61447962	-46.53910463	11.38009666	-23.90858526
20.04	0.17961889	62.68649056	-45.82113691	11.31364491	-23.44242536
20.05	0.17983507	61.76053379	-45.0943659	11.24023804	-22.95234313
20.06	0.18005037	60.8309495	-44.35936641	11.16041259	-22.44484842
20.07	0.18026092	59.89563594	-43.61500432	11.07460802	-21.92231204
20.08	0.18046653	58.95039925	-42.85825606	10.98208276	-21.38961805
20.09	0.18066487	57.98682508	-42.08835462	10.88360799	-20.85685732
20.1	0.1808575	57.00428489	-41.30303232	10.7780143	-20.32501213
20.11	0.18104161	55.9983889	-40.50282385	10.66609652	-19.80094302
20.12	0.18122113	54.96858905	-39.68768358	10.54754976	-19.28670717
20.13	0.1813978	53.9174315	-38.85856431	10.42253227	-18.77993629
20.14	0.18157394	52.84127291	-38.01703684	10.29185738	-18.28668112
20.15	0.18174952	51.7469108	-37.16365928	10.15527929	-17.80000063
20.16	0.18192385	50.6368415	-36.30000838	10.01335125	-17.31854666
20.17	0.1821035	49.51196845	-35.42710985	9.86583675	-16.84359199
20.18	0.18228036	48.37507375	-34.54666932	9.71407565	-16.37206235
20.19	0.18246112	47.22377715	-33.65855244	9.55758109	-15.90928398
20.2	0.18263711	46.06596508	-32.76250652	9.39662486	-15.44529825
20.21	0.18281641	44.89536882	-31.8591823	9.23133849	-14.98949409
20.22	0.18299466	43.71114794	-30.95006626	9.06285869	-14.54436394
20.23	0.18316852	42.52314202	-30.03571984	8.89117506	-14.09901675
